<svg width="259" height="268" viewBox="0 0 259 268" fill="black" xmlns="http://www.w3.org/2000/svg">
<path d="M137.421 124.588L136.052 124.801C135.647 124.864 135.372 125.24 135.438 125.642L138.982 147.394C139.047 147.796 139.428 148.071 139.833 148.008L141.202 147.796C141.606 147.733 141.881 147.356 141.816 146.954L138.272 125.202C138.206 124.8 137.825 124.525 137.421 124.588Z" fill="#3A3768"/>
<path d="M134.425 28.4294L64.5565 39.2734C57.6683 40.3425 52.9883 46.7572 54.1034 53.6012L81.2594 220.273C82.3745 227.117 88.8625 231.798 95.7507 230.729L165.619 219.885C172.507 218.816 177.187 212.401 176.072 205.557L148.916 38.8857C147.801 32.0418 141.313 27.3603 134.425 28.4294Z" fill="#9F2731"/>
<path d="M134.374 33.4134L123.498 35.1015L123.71 36.4014C123.842 37.2105 123.812 38.0366 123.622 38.8325C123.432 39.6284 123.086 40.3785 122.603 41.0399C122.12 41.7013 121.51 42.2611 120.808 42.6872C120.106 43.1134 119.325 43.3975 118.511 43.5235L83.9221 48.8919C83.1078 49.0187 82.2754 48.9849 81.4725 48.7923C80.6696 48.5997 79.9119 48.2522 79.2427 47.7696C78.5735 47.287 78.006 46.6788 77.5724 45.9796C77.1389 45.2805 76.8479 44.5042 76.7161 43.6951L76.5043 42.3952L66.3225 43.9754C64.3254 44.2854 62.5385 45.3709 61.355 46.9931C60.1714 48.6154 59.6881 50.6415 60.0114 52.6258L87.1447 219.157C87.468 221.142 88.5714 222.922 90.2122 224.105C91.8529 225.289 93.8966 225.78 95.8937 225.47L163.945 214.908C165.942 214.598 167.729 213.513 168.913 211.891C170.096 210.268 170.579 208.242 170.256 206.258L143.125 39.7391C142.966 38.7553 142.614 37.8111 142.088 36.9605C141.563 36.1099 140.874 35.3697 140.061 34.7822C139.248 34.1946 138.327 33.7713 137.351 33.5365C136.376 33.3016 135.364 33.2598 134.374 33.4134Z" fill="#4CD964"/>
<g clip-path="url(#clip0_1_3)">
<path d="M132.835 153.211C132.886 153.511 132.815 153.817 132.638 154.063C132.461 154.31 132.192 154.475 131.89 154.524L110.595 157.981C110.293 158.03 109.984 157.958 109.735 157.781C109.486 157.604 109.317 157.336 109.266 157.037L106.996 143.697C105.214 143.698 103.494 143.033 102.177 141.834C100.861 140.635 100.045 138.991 99.8925 137.228C99.7399 135.466 100.262 133.715 101.354 132.323C102.446 130.932 104.029 130.003 105.786 129.721L139.492 124.25L133.994 91.938L83.9928 100.054L97.3461 178.537L147.347 170.421L141.855 138.143L130.605 139.969L132.835 153.211Z" fill="#FEF2B6"/>
<path d="M151.999 124.597L106.18 132.034C104.941 132.236 103.836 132.917 103.108 133.929C102.381 134.941 102.089 136.201 102.299 137.431C102.508 138.661 103.201 139.761 104.225 140.489C105.248 141.217 106.52 141.513 107.758 141.312L153.589 133.872C152.977 132.4 152.532 130.866 152.262 129.298C152.003 127.744 151.915 126.168 151.999 124.597Z" fill="#9F2731"/>
<path d="M170.534 106.767C166.679 107.398 163.111 109.167 160.295 111.844C157.478 114.52 155.543 117.981 154.742 121.774C154.66 122.182 154.577 122.59 154.514 122.971C154.45 123.353 154.428 123.774 154.387 124.152C154.255 125.742 154.323 127.344 154.591 128.92C154.867 130.491 155.336 132.023 155.987 133.483C156.154 133.85 156.312 134.231 156.497 134.56C156.681 134.89 156.902 135.295 157.121 135.619C158.938 138.642 161.55 141.12 164.675 142.786C167.8 144.451 171.32 145.241 174.854 145.071C178.388 144.9 181.803 143.775 184.73 141.817C187.658 139.859 189.987 137.143 191.467 133.96C192.946 130.778 193.52 127.25 193.126 123.758C192.732 120.266 191.386 116.942 189.232 114.143C187.078 111.345 184.198 109.179 180.903 107.879C177.608 106.579 174.023 106.195 170.534 106.767V106.767ZM180.934 134.467C179.031 134.772 177.076 134.509 175.317 133.712C173.558 132.916 172.074 131.621 171.051 129.991C170.029 128.362 169.515 126.471 169.573 124.557C169.632 122.644 170.261 120.794 171.381 119.24C172.501 117.687 174.062 116.501 175.866 115.831C177.67 115.161 179.636 115.037 181.517 115.476C183.398 115.915 185.108 116.896 186.432 118.297C187.756 119.697 188.634 121.452 188.956 123.342C189.168 124.599 189.129 125.884 188.841 127.123C188.553 128.363 188.021 129.532 187.276 130.565C186.531 131.599 185.588 132.475 184.5 133.144C183.412 133.814 182.2 134.263 180.934 134.467V134.467Z" fill="#9F2731"/>
<path d="M128.253 140.351L109.309 143.426L111.364 155.502L130.307 152.427L128.253 140.351Z" fill="#9F2731"/>
</g>
<defs>
<clipPath id="clip0_1_3">
<rect width="115.126" height="143.103" fill="white" transform="matrix(0.987081 -0.160221 0.167732 0.985833 75.3864 83.7877)"/>
</clipPath>
</defs>
</svg>
